<?xml version="1.0" standalone="no"?>
<!DOCTYPE svg PUBLIC "-//W3C//DTD SVG 20010904//EN"
 "http://www.w3.org/TR/2001/REC-SVG-20010904/DTD/svg10.dtd">
<svg version="1.0" xmlns="http://www.w3.org/2000/svg"
 width="700.000000pt" height="700.000000pt" viewBox="0 0 700.000000 700.000000"
 preserveAspectRatio="xMidYMid meet">
<metadata>
Created by potrace 1.14, written by Peter Selinger 2001-2017
</metadata>
<g transform="translate(0.000000,700.000000) scale(0.100000,-0.100000)"
fill="#000000" stroke="none">
<path d="M1449 5947 c-99 -28 -173 -90 -221 -187 l-23 -45 -3 -1304 c-3 -1416
-4 -1370 52 -1459 31 -50 89 -100 145 -126 72 -33 198 -30 273 7 68 33 121 90
156 166 25 53 26 66 30 254 l4 197 674 0 674 0 0 -875 0 -875 -675 0 -675 0 0
263 c0 147 -5 290 -11 323 -20 112 -84 195 -188 245 -36 18 -64 23 -131 23
-74 0 -92 -3 -140 -27 -97 -50 -150 -115 -176 -217 -12 -50 -14 -136 -12 -542
3 -481 3 -483 26 -529 36 -74 87 -125 155 -159 l62 -31 2094 1 2093 0 53 24
c68 31 130 93 164 165 l26 56 0 505 0 505 -33 67 c-36 73 -86 123 -161 159
-36 18 -64 23 -131 23 -74 0 -92 -3 -140 -27 -75 -38 -123 -88 -157 -161 l-28
-61 -3 -302 -3 -303 -680 0 -679 0 0 259 0 260 343 3 c390 3 390 3 486 93 70
65 96 128 96 235 0 73 -4 93 -28 142 -32 65 -89 121 -156 152 -43 20 -65 21
-391 26 l-345 5 -2 320 -3 320 69 32 c248 116 467 391 569 713 54 171 66 255
67 470 0 169 -3 209 -23 299 -104 463 -390 790 -788 899 l-99 27 -1080 2
c-839 2 -1090 -1 -1126 -10z m2175 -663 c75 -26 168 -119 216 -218 61 -124 75
-189 74 -346 -2 -157 -22 -248 -81 -369 -44 -88 -135 -191 -197 -220 -42 -21
-54 -21 -909 -21 l-867 0 0 595 0 595 858 0 c767 0 864 -2 906 -16z"/>
<path d="M4700 3990 c-78 -15 -150 -77 -169 -147 -7 -23 -11 -154 -11 -323 0
-314 4 -333 66 -392 61 -57 69 -58 485 -58 l382 0 63 -60 c73 -70 131 -100
194 -100 132 0 238 132 209 259 -13 60 -24 77 -90 146 l-57 60 -4 230 c-3 246
-6 263 -62 323 -82 92 -243 84 -324 -14 -42 -51 -52 -101 -52 -269 l0 -145
-187 2 -188 3 -5 177 -5 176 -30 43 c-47 67 -137 104 -215 89z"/>
</g>
</svg>
